<?xml version="1.0" encoding="UTF-8" standalone="no"?> <svg xmlns="http://www.w3.org/2000/svg" viewBox="0 0 64 64"><g id="Layer_62" data-name="Layer 62"><path d="M22.44,32C23,44.69,41,44.68,41.56,32,41,19.32,23,19.31,22.44,32ZM32,37.56c-7.35-.23-7.35-10.89,0-11.12C39.35,26.67,39.35,37.33,32,37.56Z"/><path d="M60,30H53.84C52.48,17.61,43.49,11,34,10.2V4a2,2,0,0,0-4,0v6.2C20.51,11,11.52,17.61,10.16,30H4a2,2,0,0,0,0,4h6.09A22,22,0,0,0,30,53.91V60a2,2,0,0,0,4,0V53.91A22,22,0,0,0,53.91,34H60A2,2,0,0,0,60,30ZM14,32C15,8.11,49,8.13,50,32,49,55.87,15,55.88,14,32Z"/></g></svg>